<svg id="svg" version="1.1" width="400" height="368" viewBox="0 0 400 368" xmlns="http://www.w3.org/2000/svg" xmlns:xlink="http://www.w3.org/1999/xlink"><g id="svgg"><path id="path0" d="M252.916 14.242 C 252.781 14.377,252.670 15.869,252.670 17.557 L 252.670 20.626 250.107 20.626 L 247.544 20.626 247.437 23.665 L 247.330 26.703 244.659 26.812 L 241.989 26.920 241.989 29.850 L 241.989 32.781 239.411 32.781 L 236.832 32.781 236.832 36.080 L 236.832 39.378 234.162 39.487 L 231.492 39.595 231.492 54.696 L 231.492 69.797 234.162 69.906 L 236.832 70.014 236.832 76.075 L 236.832 82.136 231.492 82.136 L 226.151 82.136 226.151 85.451 L 226.151 88.766 220.825 88.766 L 215.499 88.766 215.392 91.805 L 215.285 94.843 212.615 94.952 L 209.945 95.060 209.945 97.990 L 209.945 100.921 207.366 100.921 L 204.788 100.921 204.788 103.851 L 204.788 106.782 202.118 106.890 L 199.448 106.998 199.341 110.221 L 199.235 113.444 196.671 113.444 L 194.107 113.444 194.107 122.468 L 194.107 131.492 191.543 131.492 L 188.979 131.492 188.873 134.715 L 188.766 137.937 183.532 138.039 L 178.298 138.142 178.192 141.170 L 178.085 144.199 175.040 144.306 L 171.995 144.413 172.093 153.514 L 172.192 162.615 175.138 162.799 L 178.085 162.983 178.085 165.562 L 178.085 168.140 176.519 168.253 L 174.954 168.366 174.954 261.531 L 174.954 354.696 181.022 354.696 L 187.091 354.696 187.192 348.527 L 187.293 342.357 193.278 342.256 L 199.263 342.155 199.263 348.425 L 199.263 354.696 242.910 354.696 L 286.556 354.696 286.556 348.435 L 286.556 342.173 292.809 342.173 L 299.061 342.173 299.162 336.188 L 299.263 330.203 305.249 330.101 L 311.234 330.000 311.234 323.748 L 311.234 317.495 317.495 317.495 L 323.757 317.495 323.757 298.895 L 323.757 280.295 317.495 280.295 L 311.234 280.295 311.234 274.042 L 311.234 267.790 305.249 267.689 L 299.263 267.587 299.162 261.611 L 299.061 255.635 305.055 255.534 L 311.050 255.433 311.151 249.079 L 311.251 242.726 317.504 242.726 L 323.757 242.726 323.757 217.873 L 323.757 193.020 317.587 192.919 L 311.418 192.818 311.317 186.841 L 311.216 180.865 305.240 180.764 L 299.263 180.663 299.162 174.514 L 299.062 168.366 297.505 168.253 L 295.948 168.140 295.948 165.562 L 295.948 162.983 298.619 162.875 L 301.289 162.767 301.289 153.591 L 301.289 144.415 298.619 144.307 L 295.948 144.199 295.841 141.160 L 295.734 138.122 293.171 138.122 L 290.608 138.122 290.608 134.807 L 290.608 131.492 293.171 131.492 L 295.734 131.492 295.841 128.453 L 295.948 125.414 298.619 125.306 L 301.289 125.198 301.289 106.998 L 301.289 88.798 298.619 88.690 L 295.948 88.582 295.842 85.359 L 295.736 82.136 293.172 82.136 L 290.608 82.136 290.608 79.006 L 290.608 75.875 301.289 75.875 L 311.971 75.875 311.971 72.928 L 311.971 69.982 314.549 69.982 L 317.127 69.982 317.127 67.051 L 317.127 64.121 319.797 64.012 L 322.468 63.904 322.652 60.589 L 322.836 57.274 325.322 57.165 L 327.808 57.057 327.808 44.924 L 327.808 32.792 317.219 32.694 L 306.630 32.597 306.522 29.742 L 306.415 26.888 303.867 26.888 L 301.319 26.888 301.212 23.849 L 301.105 20.810 298.435 20.702 L 295.764 20.594 295.764 17.295 L 295.764 13.996 274.463 13.996 C 262.747 13.996,253.051 14.107,252.916 14.242 M290.608 23.557 L 290.608 26.487 293.278 26.595 L 295.948 26.703 296.056 29.542 L 296.163 32.380 298.634 32.488 L 301.105 32.597 301.289 35.912 L 301.473 39.227 312.063 39.324 L 322.652 39.422 322.652 45.494 L 322.652 51.565 320.074 51.565 L 317.495 51.565 317.495 54.496 L 317.495 57.426 314.825 57.535 L 312.155 57.643 312.048 60.866 L 311.942 64.088 309.393 64.088 L 306.844 64.088 306.737 67.127 L 306.630 70.166 296.041 70.263 L 285.451 70.361 285.451 79.564 L 285.451 88.766 288.014 88.766 L 290.577 88.766 290.684 91.621 L 290.792 94.475 293.467 94.583 L 296.142 94.692 296.045 107.106 L 295.948 119.521 293.278 119.629 L 290.608 119.738 290.608 122.668 L 290.608 125.599 288.029 125.599 L 285.451 125.599 285.451 134.807 L 285.451 144.015 288.029 144.015 L 290.608 144.015 290.608 146.945 L 290.608 149.876 293.278 149.984 L 295.948 150.092 296.055 153.114 L 296.162 156.137 293.477 156.245 L 290.792 156.354 290.685 159.576 L 290.579 162.799 279.912 162.799 L 269.245 162.799 269.245 159.500 L 269.245 156.202 266.575 156.093 L 263.904 155.985 263.806 147.044 L 263.707 138.102 258.281 138.204 L 252.855 138.306 252.753 144.092 L 252.652 149.878 255.700 149.985 L 258.748 150.092 258.748 153.039 L 258.748 155.985 255.801 156.169 L 252.855 156.354 252.748 159.576 L 252.642 162.799 233.871 162.799 L 215.101 162.799 215.101 159.468 L 215.101 156.136 212.615 156.245 L 210.129 156.354 210.022 159.581 L 209.916 162.808 196.579 162.712 L 183.241 162.615 183.135 159.392 L 183.028 156.169 180.450 156.169 L 177.871 156.169 177.978 153.131 L 178.085 150.092 180.556 149.984 L 183.027 149.875 183.134 147.037 L 183.241 144.199 188.475 144.097 L 193.708 143.995 193.815 141.150 L 193.923 138.306 196.593 138.197 L 199.263 138.089 199.263 128.713 L 199.263 119.337 201.826 119.337 L 204.389 119.337 204.496 116.483 L 204.604 113.628 207.182 113.444 L 209.761 113.260 209.867 110.037 L 209.973 106.814 212.522 106.814 L 215.071 106.814 215.178 103.775 L 215.285 100.737 217.956 100.628 L 220.626 100.520 220.626 97.590 L 220.626 94.659 225.967 94.659 L 231.308 94.659 231.308 91.723 L 231.308 88.786 236.556 88.684 L 241.805 88.582 241.911 85.369 L 242.017 82.156 247.252 82.054 L 252.486 81.952 252.593 79.114 L 252.701 76.276 250.015 76.167 L 247.330 76.059 247.222 73.221 L 247.115 70.383 244.644 70.274 L 242.173 70.166 241.989 67.219 L 241.805 64.273 239.128 64.164 L 236.452 64.056 236.550 54.772 L 236.648 45.488 239.319 45.380 L 241.989 45.272 241.989 42.341 L 241.989 39.411 244.553 39.411 L 247.118 39.411 247.224 36.004 L 247.330 32.597 250.000 32.488 L 252.670 32.380 252.670 29.450 L 252.670 26.519 255.617 26.519 L 258.564 26.519 258.564 23.573 L 258.564 20.626 274.586 20.626 L 290.608 20.626 290.608 23.557 M13.628 261.510 L 13.628 354.696 19.696 354.696 L 25.765 354.696 25.866 348.527 L 25.967 342.357 31.952 342.256 L 37.937 342.155 37.937 348.425 L 37.937 354.696 50.645 354.696 L 63.352 354.696 63.352 317.495 L 63.352 280.295 88.029 280.295 L 112.707 280.295 112.707 317.495 L 112.707 354.696 118.969 354.696 L 125.230 354.696 125.230 348.435 L 125.230 342.173 131.483 342.173 L 137.735 342.173 137.836 336.188 L 137.937 330.203 143.923 330.101 L 149.908 330.000 149.908 323.748 L 149.908 317.495 156.169 317.495 L 162.431 317.495 162.431 298.895 L 162.431 280.295 156.169 280.295 L 149.908 280.295 149.908 274.042 L 149.908 267.790 143.923 267.689 L 137.937 267.587 137.836 261.611 L 137.735 255.635 143.729 255.534 L 149.724 255.433 149.825 249.079 L 149.925 242.726 156.178 242.726 L 162.431 242.726 162.431 217.864 L 162.431 193.002 156.169 193.002 L 149.908 193.002 149.908 186.934 L 149.908 180.865 143.923 180.764 L 137.937 180.663 137.836 174.494 L 137.735 168.324 106.621 168.324 L 75.506 168.324 75.506 174.586 L 75.506 180.847 69.429 180.847 L 63.352 180.847 63.352 174.586 L 63.352 168.324 38.490 168.324 L 13.628 168.324 13.628 261.510 M336.280 249.162 L 336.280 330.001 342.449 330.102 L 348.619 330.203 348.716 342.449 L 348.813 354.696 354.701 354.696 L 360.589 354.696 360.589 348.426 L 360.589 342.156 366.943 342.256 L 373.297 342.357 373.397 348.527 L 373.498 354.696 379.751 354.696 L 386.004 354.696 386.004 273.858 L 386.004 193.019 379.650 192.918 L 373.297 192.818 373.199 180.571 L 373.102 168.324 354.691 168.324 L 336.280 168.324 336.280 249.162 M236.749 174.862 L 236.851 180.847 230.764 180.847 L 224.678 180.847 224.678 174.761 L 224.678 168.674 230.663 168.775 L 236.648 168.877 236.749 174.862 M112.620 230.479 L 112.523 242.910 87.937 243.004 L 63.352 243.099 63.352 230.574 L 63.352 218.048 88.034 218.048 L 112.717 218.048 112.620 230.479 M273.946 230.479 L 273.849 242.910 249.263 243.004 L 224.678 243.099 224.678 230.574 L 224.678 218.048 249.360 218.048 L 274.043 218.048 273.946 230.479 M274.033 292.634 L 274.033 304.972 249.355 304.972 L 224.678 304.972 224.678 292.634 L 224.678 280.295 249.355 280.295 L 274.033 280.295 274.033 292.634 M150.276 336.280 L 150.276 342.173 156.354 342.173 L 162.431 342.173 162.431 336.280 L 162.431 330.387 156.354 330.387 L 150.276 330.387 150.276 336.280 M311.602 336.280 L 311.602 342.173 317.680 342.173 L 323.757 342.173 323.757 336.280 L 323.757 330.387 317.680 330.387 L 311.602 330.387 311.602 336.280 M138.122 348.619 L 138.122 354.696 144.015 354.696 L 149.908 354.696 149.908 348.619 L 149.908 342.541 144.015 342.541 L 138.122 342.541 138.122 348.619 M299.448 348.619 L 299.448 354.696 305.341 354.696 L 311.234 354.696 311.234 348.619 L 311.234 342.541 305.341 342.541 L 299.448 342.541 299.448 348.619 " stroke="none" fill="#fcfcfc" fill-rule="evenodd"></path><path id="path1" d="M263.628 13.904 C 269.553 13.961,279.250 13.961,285.175 13.904 C 291.100 13.847,286.252 13.801,274.401 13.801 C 262.551 13.801,257.703 13.847,263.628 13.904 M252.435 17.311 C 252.435 19.236,252.497 20.023,252.573 19.061 C 252.649 18.099,252.649 16.524,252.573 15.562 C 252.497 14.599,252.435 15.387,252.435 17.311 M266.784 20.902 C 271.203 20.961,278.331 20.961,282.622 20.902 C 286.913 20.843,283.297 20.795,274.586 20.795 C 265.875 20.795,262.364 20.843,266.784 20.902 M301.418 23.573 C 301.418 25.295,301.481 25.999,301.559 25.138 C 301.636 24.277,301.636 22.868,301.559 22.007 C 301.481 21.146,301.418 21.851,301.418 23.573 M279.834 26.801 L 269.245 26.899 269.245 45.494 L 269.245 64.088 266.667 64.088 L 264.088 64.088 264.088 67.019 L 264.088 69.949 261.418 70.058 L 258.748 70.166 258.646 76.151 L 258.545 82.136 255.792 82.136 L 253.039 82.136 253.039 79.211 C 253.039 77.603,252.914 76.210,252.762 76.115 C 252.610 76.021,252.531 78.829,252.585 82.355 L 252.684 88.766 247.534 88.766 L 242.385 88.766 242.263 85.359 L 242.142 81.952 242.065 85.349 L 241.989 88.746 236.740 88.848 L 231.492 88.950 231.384 91.795 L 231.277 94.639 226.044 94.741 L 220.810 94.843 220.709 100.829 L 220.608 106.814 217.947 106.813 L 215.285 106.813 215.285 110.036 L 215.285 113.260 212.814 113.368 L 210.342 113.477 210.219 110.237 L 210.096 106.998 210.020 110.205 L 209.945 113.412 207.274 113.539 L 204.604 113.666 207.274 113.739 L 209.945 113.812 209.945 116.564 L 209.945 119.317 204.696 119.419 L 199.448 119.521 199.349 128.805 L 199.251 138.090 196.587 138.217 L 193.923 138.344 196.593 138.417 L 199.263 138.490 199.263 141.252 L 199.263 144.015 196.501 144.015 L 193.738 144.015 193.738 146.951 L 193.738 149.888 188.490 150.001 L 183.241 150.114 188.674 150.195 L 194.107 150.276 194.107 147.346 L 194.107 144.415 196.777 144.307 L 199.448 144.199 199.555 141.344 L 199.663 138.490 202.041 138.490 L 204.420 138.490 204.420 144.383 L 204.420 150.276 212.508 150.276 L 220.595 150.276 220.703 153.131 L 220.810 155.985 236.556 156.081 L 252.302 156.177 252.302 159.301 L 252.302 162.424 233.886 162.525 L 215.470 162.625 233.978 162.620 L 252.486 162.615 252.592 159.407 L 252.699 156.199 255.723 156.075 L 258.748 155.951 255.709 155.876 L 252.670 155.801 252.670 146.971 L 252.670 138.141 258.196 138.024 L 263.721 137.908 258.104 137.922 L 252.486 137.937 252.385 144.117 L 252.284 150.297 247.229 150.194 L 242.173 150.092 242.173 147.145 L 242.173 144.199 244.659 144.090 L 247.145 143.981 247.145 131.659 L 247.145 119.337 244.567 119.337 L 241.989 119.337 241.989 116.374 L 241.989 113.412 244.659 113.520 L 247.330 113.628 247.437 116.483 L 247.545 119.337 250.108 119.337 L 252.670 119.337 252.670 125.424 L 252.670 131.511 258.287 131.409 L 263.904 131.308 264.012 128.453 L 264.119 125.599 266.682 125.599 L 269.245 125.599 269.245 140.684 L 269.245 155.769 266.575 155.896 L 263.904 156.023 266.560 156.096 L 269.216 156.169 269.323 159.392 L 269.429 162.615 280.110 162.624 L 290.792 162.633 280.203 162.526 L 269.613 162.420 269.613 159.295 L 269.613 156.169 282.781 156.096 C 290.023 156.056,294.747 155.966,293.278 155.896 L 290.608 155.769 290.609 152.930 L 290.609 150.092 288.030 150.214 L 285.451 150.337 285.451 147.176 L 285.451 144.015 282.689 144.015 L 279.926 144.015 279.926 134.807 L 279.926 125.599 282.689 125.599 L 285.451 125.599 285.451 122.438 L 285.451 119.277 288.030 119.399 L 290.609 119.521 290.609 107.291 L 290.608 95.060 293.278 94.933 C 294.747 94.863,293.587 94.773,290.700 94.732 L 285.451 94.659 285.451 91.897 L 285.451 89.134 288.091 89.134 C 289.543 89.134,290.642 89.046,290.533 88.937 C 290.425 88.829,287.994 88.741,285.131 88.742 L 279.926 88.745 279.926 76.420 L 279.926 64.096 295.856 64.000 L 311.786 63.904 311.893 60.697 L 311.999 57.490 314.655 57.363 L 317.311 57.237 314.641 57.163 L 311.971 57.090 311.971 51.197 L 311.971 45.304 306.630 45.304 L 301.289 45.304 301.289 42.541 L 301.289 39.779 311.777 39.779 L 322.265 39.779 322.376 45.580 L 322.488 51.381 322.570 45.396 L 322.652 39.411 311.878 39.383 C 305.953 39.367,299.986 39.378,298.619 39.407 L 296.133 39.460 296.133 36.028 L 296.134 32.597 293.463 32.597 L 290.792 32.597 290.608 29.650 L 290.424 26.703 279.834 26.801 M241.693 29.542 L 241.621 32.380 238.950 32.507 L 236.280 32.634 238.962 32.708 C 242.101 32.793,242.078 32.821,241.895 29.245 L 241.765 26.703 241.693 29.542 M252.797 29.650 C 252.798 31.271,252.863 31.888,252.941 31.022 C 253.018 30.155,253.017 28.829,252.938 28.075 C 252.859 27.321,252.795 28.029,252.797 29.650 M312.063 32.688 C 315.051 32.750,319.940 32.750,322.928 32.688 C 325.916 32.626,323.471 32.575,317.495 32.575 C 311.519 32.575,309.075 32.626,312.063 32.688 M232.505 39.311 C 233.264 39.390,234.507 39.390,235.267 39.311 C 236.027 39.231,235.405 39.166,233.886 39.166 C 232.366 39.166,231.745 39.231,232.505 39.311 M244.659 39.316 L 241.989 39.443 241.989 42.357 L 241.989 45.272 239.503 45.404 L 237.017 45.536 239.595 45.512 L 242.173 45.488 242.281 42.634 L 242.388 39.779 244.745 39.779 C 246.041 39.779,247.204 39.613,247.330 39.411 C 247.455 39.208,247.506 39.075,247.443 39.116 C 247.381 39.156,246.128 39.246,244.659 39.316 M290.608 42.357 L 290.608 45.304 288.029 45.304 L 285.451 45.304 285.451 42.357 L 285.451 39.411 288.029 39.411 L 290.608 39.411 290.608 42.357 M231.117 54.972 L 231.123 70.166 233.702 70.190 L 236.280 70.214 233.798 70.082 L 231.316 69.949 231.213 54.864 L 231.111 39.779 231.117 54.972 M311.602 51.364 L 311.602 57.057 309.116 57.165 L 306.630 57.274 306.523 60.497 L 306.417 63.720 301.275 63.720 L 296.133 63.720 296.133 60.589 L 296.133 57.459 298.711 57.459 L 301.289 57.459 301.289 51.565 L 301.289 45.672 306.446 45.672 L 311.602 45.672 311.602 51.364 M279.926 60.773 L 279.926 64.088 277.348 64.088 L 274.770 64.088 274.770 60.773 L 274.770 57.459 277.348 57.459 L 279.926 57.459 279.926 60.773 M311.602 60.589 L 311.602 63.720 309.208 63.720 L 306.814 63.720 306.814 60.589 L 306.814 57.459 309.208 57.459 L 311.602 57.459 311.602 60.589 M322.785 60.773 C 322.785 62.698,322.847 63.485,322.923 62.523 C 322.999 61.561,322.999 59.986,322.923 59.024 C 322.847 58.062,322.785 58.849,322.785 60.773 M239.304 63.984 L 241.960 64.120 242.089 66.959 L 242.218 69.797 242.195 66.851 L 242.173 63.904 239.411 63.876 L 236.648 63.848 239.304 63.984 M318.500 64.354 C 319.154 64.436,320.314 64.437,321.078 64.357 C 321.843 64.277,321.308 64.211,319.890 64.209 C 318.471 64.208,317.846 64.273,318.500 64.354 M312.125 70.479 C 312.020 70.752,311.993 72.119,312.064 73.517 L 312.195 76.059 312.267 73.221 L 312.339 70.382 315.009 70.255 L 317.680 70.128 314.998 70.055 C 313.034 70.001,312.265 70.115,312.125 70.479 M290.767 79.096 L 290.792 81.952 293.370 81.976 L 295.948 82.000 293.477 81.868 L 291.006 81.736 290.874 78.988 L 290.742 76.241 290.767 79.096 M228.637 82.041 C 230.106 82.111,232.509 82.111,233.978 82.041 C 235.447 81.972,234.245 81.914,231.308 81.914 C 228.370 81.914,227.169 81.972,228.637 82.041 M215.341 88.674 C 215.247 88.826,216.770 88.906,218.726 88.852 C 225.290 88.672,226.006 88.535,220.740 88.466 C 217.865 88.428,215.436 88.522,215.341 88.674 M298.615 88.662 L 301.282 88.798 301.383 106.922 L 301.484 125.046 301.478 106.814 L 301.473 88.582 298.711 88.554 L 295.948 88.526 298.615 88.662 M241.989 91.897 L 241.989 94.659 236.832 94.659 L 231.676 94.659 231.676 91.897 L 231.676 89.134 236.832 89.134 L 241.989 89.134 241.989 91.897 M231.231 97.882 L 231.123 100.737 226.059 100.839 L 220.994 100.942 220.994 97.985 L 220.994 95.028 226.167 95.028 L 231.339 95.028 231.231 97.882 M200.460 106.714 C 201.220 106.793,202.463 106.793,203.223 106.714 C 203.983 106.635,203.361 106.570,201.842 106.570 C 200.322 106.570,199.701 106.635,200.460 106.714 M193.979 113.352 C 193.885 113.504,194.662 113.581,195.707 113.523 C 199.094 113.335,199.506 113.187,196.799 113.131 C 195.342 113.100,194.073 113.200,193.979 113.352 M204.788 128.913 L 204.788 138.122 207.366 138.122 L 209.945 138.122 209.945 144.015 L 209.945 149.908 207.366 149.908 L 204.788 149.908 204.788 144.015 L 204.788 138.122 202.210 138.122 L 199.632 138.122 199.632 128.913 L 199.632 119.705 202.210 119.705 L 204.788 119.705 204.788 128.913 M189.779 131.392 C 190.539 131.471,191.782 131.471,192.541 131.392 C 193.301 131.312,192.680 131.247,191.160 131.247 C 189.641 131.247,189.019 131.312,189.779 131.392 M290.763 131.987 C 290.659 132.259,290.622 133.709,290.683 135.209 L 290.792 137.937 293.186 137.963 L 295.580 137.988 293.278 137.854 L 290.976 137.720 290.976 134.807 L 290.976 131.894 293.462 131.765 L 295.948 131.636 293.451 131.564 C 291.647 131.512,290.900 131.629,290.763 131.987 M180.755 138.027 C 182.224 138.097,184.627 138.097,186.096 138.027 C 187.564 137.957,186.363 137.900,183.425 137.900 C 180.488 137.900,179.286 137.957,180.755 138.027 M301.374 153.299 L 301.289 162.767 298.619 162.894 L 295.948 163.021 298.630 163.094 C 301.962 163.185,301.692 164.110,301.565 153.032 L 301.460 143.831 301.374 153.299 M171.813 153.591 L 171.823 162.983 174.770 163.006 L 177.716 163.028 174.868 162.899 L 172.020 162.770 171.912 153.484 L 171.803 144.199 171.813 153.591 M178.060 153.130 L 178.085 155.985 193.923 156.169 C 202.634 156.271,211.004 156.259,212.523 156.144 C 214.042 156.028,206.964 155.904,196.793 155.867 L 178.300 155.801 178.167 153.037 L 178.035 150.274 178.060 153.130 M189.963 162.707 C 193.660 162.767,199.710 162.767,203.407 162.707 C 207.104 162.647,204.079 162.597,196.685 162.597 C 189.291 162.597,186.266 162.647,189.963 162.707 M63.352 174.344 L 63.536 180.663 69.337 180.677 L 75.139 180.692 69.429 180.576 L 63.720 180.460 63.720 174.414 C 63.720 171.088,63.596 168.290,63.444 168.196 C 63.292 168.102,63.250 170.868,63.352 174.344 M224.847 174.861 L 224.862 180.663 230.663 180.677 L 236.465 180.692 230.765 180.576 L 225.065 180.460 224.949 174.760 L 224.833 169.060 224.847 174.861 M143.914 180.750 L 149.890 180.865 150.005 186.750 L 150.120 192.634 150.106 186.649 L 150.092 180.663 144.015 180.648 L 137.937 180.634 143.914 180.750 M305.240 180.750 L 311.216 180.865 311.331 186.750 L 311.446 192.634 311.432 186.649 L 311.418 180.663 305.341 180.648 L 299.263 180.634 305.240 180.750 M386.004 273.775 L 386.188 354.880 386.281 274.052 C 386.332 229.597,386.249 193.100,386.097 192.947 C 385.944 192.795,385.902 229.168,386.004 273.775 M63.517 230.571 C 63.517 237.357,63.567 240.134,63.627 236.740 C 63.688 233.347,63.688 227.795,63.627 224.401 C 63.567 221.008,63.517 223.785,63.517 230.571 M112.504 230.571 C 112.504 237.357,112.554 240.134,112.614 236.740 C 112.675 233.347,112.675 227.795,112.614 224.401 C 112.554 221.008,112.504 223.785,112.504 230.571 M224.843 230.571 C 224.843 237.357,224.893 240.134,224.953 236.740 C 225.014 233.347,225.014 227.795,224.953 224.401 C 224.893 221.008,224.843 223.785,224.843 230.571 M273.830 230.571 C 273.830 237.357,273.880 240.134,273.940 236.740 C 274.001 233.347,274.001 227.795,273.940 224.401 C 273.880 221.008,273.830 223.785,273.830 230.571 M150.059 249.355 C 150.059 252.901,150.115 254.351,150.182 252.578 C 150.250 250.806,150.250 247.905,150.182 246.133 C 150.115 244.360,150.059 245.810,150.059 249.355 M311.385 249.355 C 311.385 252.901,311.441 254.351,311.508 252.578 C 311.576 250.806,311.576 247.905,311.508 246.133 C 311.441 244.360,311.385 245.810,311.385 249.355 M150.079 273.849 L 150.092 280.110 156.446 280.124 L 162.800 280.137 156.547 280.023 L 150.294 279.909 150.180 273.748 L 150.066 267.587 150.079 273.849 M311.405 273.849 L 311.418 280.110 317.772 280.124 L 324.126 280.137 317.873 280.023 L 311.620 279.909 311.506 273.748 L 311.392 267.587 311.405 273.849 M63.529 317.495 C 63.529 338.057,63.574 346.469,63.628 336.188 C 63.682 325.907,63.682 309.084,63.628 298.803 C 63.574 288.522,63.529 296.934,63.529 317.495 M224.854 292.449 L 224.862 304.788 249.355 304.788 L 273.849 304.788 273.857 292.634 L 273.865 280.479 273.760 292.541 L 273.655 304.604 249.355 304.604 L 225.056 304.604 224.951 292.357 L 224.847 280.110 224.854 292.449 M112.516 317.864 C 112.516 338.425,112.561 346.837,112.615 336.556 C 112.669 326.275,112.669 309.452,112.615 299.171 C 112.561 288.890,112.516 297.302,112.516 317.864 M150.078 324.033 L 150.092 330.203 156.446 330.216 L 162.800 330.229 156.547 330.115 L 150.294 330.001 150.179 323.932 L 150.065 317.863 150.078 324.033 M311.404 324.033 L 311.418 330.203 317.772 330.216 L 324.126 330.229 317.873 330.115 L 311.620 330.001 311.505 323.932 L 311.390 317.863 311.404 324.033 M150.059 348.803 C 150.059 352.348,150.115 353.798,150.182 352.026 C 150.250 350.253,150.250 347.353,150.182 345.580 C 150.115 343.808,150.059 345.258,150.059 348.803 M311.385 348.803 C 311.385 352.348,311.441 353.798,311.508 352.026 C 311.576 350.253,311.576 347.353,311.508 345.580 C 311.441 343.808,311.385 345.258,311.385 348.803 M360.741 348.803 C 360.741 352.348,360.796 353.798,360.864 352.026 C 360.931 350.253,360.931 347.353,360.864 345.580 C 360.796 343.808,360.741 345.258,360.741 348.803 " stroke="none" fill="#643c34" fill-rule="evenodd"></path><path id="path2" d="M295.897 17.311 C 295.897 19.236,295.959 20.023,296.035 19.061 C 296.111 18.099,296.111 16.524,296.035 15.562 C 295.959 14.599,295.897 15.387,295.897 17.311 M258.637 23.466 L 258.564 26.490 255.525 26.614 L 252.486 26.738 255.536 26.813 C 259.105 26.900,259.018 26.996,258.838 23.170 L 258.710 20.442 258.637 23.466 M247.218 23.649 L 247.145 26.487 244.475 26.614 L 241.805 26.741 244.487 26.814 C 247.626 26.900,247.603 26.927,247.420 23.352 L 247.290 20.810 247.218 23.649 M293.079 26.784 L 295.734 26.919 295.841 29.758 L 295.948 32.597 298.343 32.622 L 300.737 32.647 298.450 32.513 L 296.163 32.380 296.056 29.542 L 295.948 26.703 293.186 26.676 L 290.424 26.648 293.079 26.784 M303.760 26.784 L 306.415 26.919 306.547 29.667 L 306.680 32.415 306.655 29.559 L 306.630 26.703 303.867 26.676 L 301.105 26.648 303.760 26.784 M247.302 32.905 C 247.197 33.177,247.169 34.710,247.239 36.312 L 247.366 39.227 247.440 36.020 L 247.514 32.813 250.184 32.686 L 252.855 32.559 250.173 32.486 C 248.219 32.432,247.439 32.546,247.302 32.905 M236.597 36.096 C 236.597 38.020,236.659 38.808,236.735 37.845 C 236.811 36.883,236.811 35.308,236.735 34.346 C 236.659 33.384,236.597 34.171,236.597 36.096 M327.895 44.827 L 327.808 57.057 325.322 57.185 L 322.836 57.314 325.334 57.386 C 328.473 57.477,328.206 58.721,328.085 44.564 L 327.982 32.597 327.895 44.827 M236.624 54.880 C 236.624 60.046,236.676 62.159,236.739 59.576 C 236.803 56.994,236.803 52.767,236.739 50.184 C 236.676 47.601,236.624 49.715,236.624 54.880 M301.289 51.565 L 301.289 57.459 298.711 57.459 L 296.133 57.459 296.133 60.589 L 296.133 63.720 301.275 63.720 L 306.417 63.720 306.523 60.497 L 306.630 57.274 309.116 57.165 L 311.602 57.057 311.602 51.364 L 311.602 45.672 306.446 45.672 L 301.289 45.672 301.289 51.565 M317.282 51.692 C 317.178 51.964,317.150 53.414,317.221 54.915 L 317.349 57.643 317.422 54.620 L 317.495 51.598 320.166 51.471 L 322.836 51.343 320.154 51.270 C 318.196 51.217,317.421 51.331,317.282 51.692 M306.519 66.937 L 306.446 69.970 295.856 70.068 L 285.267 70.166 285.257 79.282 L 285.247 88.398 285.356 79.374 L 285.464 70.350 295.966 70.350 C 307.932 70.350,306.912 70.703,306.720 66.632 L 306.592 63.904 306.519 66.937 M317.256 67.035 C 317.256 68.757,317.319 69.461,317.397 68.600 C 317.474 67.739,317.474 66.331,317.397 65.470 C 317.319 64.609,317.256 65.313,317.256 67.035 M236.615 76.059 C 236.614 79.503,236.670 80.961,236.738 79.300 C 236.806 77.639,236.806 74.821,236.739 73.038 C 236.671 71.256,236.615 72.615,236.615 76.059 M244.828 70.249 L 247.115 70.383 247.222 73.221 L 247.330 76.059 249.908 76.088 L 252.486 76.118 250.015 75.980 L 247.544 75.842 247.437 73.004 L 247.330 70.166 244.936 70.141 L 242.541 70.115 244.828 70.249 M295.856 76.150 C 298.844 76.212,303.734 76.212,306.722 76.150 C 309.710 76.088,307.265 76.038,301.289 76.038 C 295.313 76.038,292.868 76.088,295.856 76.150 M225.915 85.451 C 225.915 87.376,225.978 88.163,226.053 87.201 C 226.129 86.238,226.129 84.664,226.053 83.702 C 225.978 82.739,225.915 83.527,225.915 85.451 M295.895 85.267 C 295.894 87.090,295.956 87.883,296.033 87.028 C 296.111 86.173,296.112 84.681,296.035 83.713 C 295.959 82.744,295.896 83.444,295.895 85.267 M215.173 91.789 L 215.101 94.627 212.431 94.754 L 209.761 94.881 212.442 94.954 C 215.582 95.040,215.559 95.067,215.376 91.492 L 215.246 88.950 215.173 91.789 M295.851 106.890 L 295.764 119.305 293.094 119.432 L 290.424 119.559 293.105 119.632 C 296.460 119.724,296.162 121.045,296.040 106.627 L 295.938 94.475 295.851 106.890 M204.575 101.047 C 204.471 101.320,204.443 102.770,204.514 104.270 L 204.642 106.998 204.715 103.976 L 204.788 100.953 207.459 100.826 L 210.129 100.699 207.447 100.626 C 205.488 100.572,204.714 100.686,204.575 101.047 M215.257 101.047 C 215.152 101.320,215.124 102.770,215.195 104.270 L 215.323 106.998 215.396 103.976 L 215.470 100.953 218.140 100.826 L 220.810 100.699 218.128 100.626 C 216.170 100.572,215.395 100.686,215.257 101.047 M193.898 122.652 C 193.898 127.615,193.950 129.645,194.014 127.164 C 194.077 124.682,194.077 120.622,194.014 118.140 C 193.950 115.658,193.898 117.689,193.898 122.652 M204.546 116.575 C 204.547 118.195,204.612 118.812,204.690 117.946 C 204.768 117.080,204.767 115.754,204.688 114.999 C 204.608 114.245,204.545 114.954,204.546 116.575 M285.249 125.698 C 285.150 125.955,285.114 130.223,285.168 135.182 L 285.267 144.199 287.845 144.223 L 290.424 144.247 287.937 144.115 L 285.451 143.982 285.451 134.807 L 285.451 125.631 288.122 125.504 L 290.792 125.377 288.110 125.303 C 286.227 125.252,285.375 125.369,285.249 125.698 M295.920 125.725 C 295.815 125.997,295.787 127.448,295.858 128.948 L 295.986 131.676 296.059 128.653 L 296.133 125.631 298.803 125.504 L 301.473 125.377 298.791 125.303 C 296.833 125.250,296.058 125.364,295.920 125.725 M188.713 134.622 C 188.712 136.446,188.774 137.238,188.851 136.383 C 188.928 135.528,188.929 134.037,188.853 133.068 C 188.777 132.100,188.714 132.799,188.713 134.622 M177.974 140.961 L 177.901 143.985 174.862 144.109 L 171.823 144.233 174.873 144.308 C 178.442 144.396,178.355 144.491,178.175 140.665 L 178.047 137.937 177.974 140.961 M263.879 146.961 C 263.879 151.924,263.931 153.955,263.995 151.473 C 264.059 148.992,264.059 144.931,263.995 142.449 C 263.931 139.968,263.879 141.998,263.879 146.961 M295.926 141.252 L 295.948 144.199 298.527 144.223 L 301.105 144.247 298.633 144.115 L 296.162 143.983 296.033 141.144 L 295.904 138.306 295.926 141.252 M193.811 141.150 L 193.738 143.995 188.490 144.097 L 183.241 144.199 183.134 147.037 L 183.027 149.875 180.556 150.003 L 178.085 150.132 180.755 150.204 L 183.425 150.276 183.425 153.039 L 183.425 155.801 196.685 155.801 L 209.945 155.801 209.945 153.039 L 209.945 150.276 207.182 150.276 L 204.420 150.276 204.420 144.383 L 204.420 138.490 202.041 138.490 L 199.663 138.490 199.555 141.344 L 199.448 144.199 196.777 144.307 L 194.107 144.415 194.107 147.346 L 194.107 150.276 188.766 150.276 L 183.425 150.276 183.425 147.330 L 183.425 144.383 188.594 144.383 C 194.518 144.383,194.204 144.588,194.013 140.847 L 193.883 138.306 193.811 141.150 M255.694 150.176 L 258.533 150.306 258.665 153.055 L 258.797 155.804 258.773 152.948 L 258.748 150.092 255.801 150.070 L 252.855 150.047 255.694 150.176 M293.079 150.172 L 295.735 150.308 295.864 153.147 L 295.993 155.985 295.971 153.039 L 295.948 150.092 293.186 150.064 L 290.424 150.036 293.079 150.172 M183.188 159.300 C 183.187 161.123,183.249 161.916,183.326 161.061 C 183.403 160.206,183.404 158.714,183.328 157.746 C 183.252 156.778,183.189 157.477,183.188 159.300 M215.234 159.484 C 215.234 161.409,215.296 162.196,215.372 161.234 C 215.448 160.272,215.448 158.697,215.372 157.735 C 215.296 156.773,215.234 157.560,215.234 159.484 M177.970 165.448 L 177.901 167.913 176.335 168.027 L 174.770 168.140 174.677 261.611 L 174.584 355.082 180.939 354.981 L 187.293 354.880 187.394 348.720 L 187.495 342.560 193.379 342.444 L 199.264 342.329 193.278 342.343 L 187.293 342.357 187.192 348.527 L 187.091 354.696 181.022 354.696 L 174.954 354.696 174.954 261.510 L 174.954 168.324 176.439 168.324 C 178.207 168.324,178.354 168.056,178.174 165.152 L 178.040 162.983 177.970 165.448 M295.923 165.746 L 295.948 168.140 297.505 168.253 L 299.062 168.366 299.177 174.514 L 299.292 180.663 299.278 174.401 L 299.263 168.140 297.714 168.028 L 296.165 167.915 296.032 165.633 L 295.898 163.352 295.923 165.746 M13.505 168.201 C 13.370 168.336,13.260 210.440,13.260 261.764 L 13.260 355.082 19.613 354.981 L 25.967 354.880 26.068 348.720 L 26.169 342.560 32.145 342.444 L 38.122 342.328 32.044 342.343 L 25.967 342.357 25.866 348.527 L 25.765 354.696 19.696 354.696 L 13.628 354.696 13.628 261.513 L 13.628 168.329 38.398 168.232 L 63.168 168.135 38.459 168.045 C 24.870 167.996,13.640 168.066,13.505 168.201 M75.302 168.428 C 75.201 168.690,75.169 171.633,75.230 174.968 L 75.342 181.031 75.424 174.678 L 75.506 168.324 106.621 168.324 L 137.735 168.324 137.850 174.402 L 137.965 180.480 137.951 174.310 L 137.937 168.140 106.711 168.046 C 81.436 167.970,75.450 168.042,75.302 168.428 M336.161 168.198 C 336.024 168.335,335.912 204.883,335.912 249.417 L 335.912 330.387 342.168 330.387 L 348.425 330.387 348.522 342.634 L 348.619 354.880 354.512 354.894 L 360.405 354.908 354.609 354.793 L 348.813 354.678 348.716 342.440 L 348.619 330.203 342.449 330.102 L 336.280 330.001 336.280 249.162 L 336.280 168.324 354.691 168.324 L 373.102 168.324 373.199 180.571 L 373.297 192.818 379.466 192.831 L 385.636 192.845 379.563 192.730 L 373.491 192.616 373.394 180.378 L 373.297 168.140 354.853 168.045 C 344.709 167.992,336.297 168.061,336.161 168.198 M230.470 168.963 L 236.446 169.079 236.561 174.963 L 236.677 180.848 236.662 174.862 L 236.648 168.877 230.571 168.862 L 224.494 168.847 230.470 168.963 M156.077 192.905 L 162.431 193.019 162.431 217.864 L 162.431 242.708 156.169 242.822 L 149.907 242.937 156.261 242.923 L 162.615 242.910 162.615 217.864 L 162.615 192.818 156.169 192.804 L 149.724 192.790 156.077 192.905 M317.679 192.905 L 323.757 193.020 323.757 217.864 L 323.757 242.708 317.495 242.822 L 311.233 242.937 317.587 242.923 L 323.941 242.910 323.941 217.864 L 323.941 192.818 317.771 192.804 L 311.602 192.790 317.679 192.905 M75.599 218.324 C 82.436 218.380,93.623 218.380,100.460 218.324 C 107.297 218.268,101.703 218.222,88.029 218.222 C 74.355 218.222,68.762 218.268,75.599 218.324 M236.924 218.324 C 243.762 218.380,254.949 218.380,261.786 218.324 C 268.623 218.268,263.029 218.222,249.355 218.222 C 235.681 218.222,230.087 218.268,236.924 218.324 M75.625 243.002 C 82.477 243.058,93.582 243.058,100.303 243.002 C 107.024 242.945,101.418 242.900,87.845 242.900 C 74.273 242.900,68.774 242.946,75.625 243.002 M236.951 243.002 C 243.803 243.058,254.908 243.058,261.629 243.002 C 268.350 242.945,262.744 242.900,249.171 242.900 C 235.599 242.900,230.100 242.946,236.951 243.002 M137.923 261.510 L 137.937 267.587 143.923 267.602 L 149.909 267.616 144.024 267.500 L 138.140 267.385 138.024 261.409 L 137.908 255.433 137.923 261.510 M299.249 261.510 L 299.263 267.587 305.249 267.602 L 311.235 267.616 305.350 267.500 L 299.466 267.385 299.350 261.409 L 299.234 255.433 299.249 261.510 M162.520 298.794 L 162.431 317.478 156.077 317.588 L 149.724 317.698 156.089 317.781 C 160.904 317.844,162.497 317.752,162.630 317.403 C 162.727 317.150,162.762 308.656,162.707 298.527 L 162.608 280.110 162.520 298.794 M323.845 298.794 L 323.757 317.478 317.403 317.588 L 311.050 317.698 317.415 317.781 C 322.230 317.844,323.823 317.752,323.956 317.403 C 324.053 317.150,324.088 308.656,324.033 298.527 L 323.934 280.110 323.845 298.794 M137.999 330.264 C 137.864 330.399,137.753 333.134,137.753 336.341 L 137.753 342.173 131.492 342.173 L 125.230 342.173 125.230 348.426 L 125.230 354.679 118.968 354.793 L 112.707 354.907 119.060 354.894 L 125.414 354.880 125.515 348.711 L 125.616 342.541 131.676 342.541 L 137.735 342.541 137.836 348.711 L 137.937 354.880 143.831 354.894 L 149.724 354.908 143.923 354.793 L 138.122 354.678 138.122 348.615 L 138.122 342.551 150.368 342.454 L 162.615 342.357 162.630 336.280 L 162.644 330.203 162.528 336.188 L 162.413 342.173 156.344 342.173 L 150.276 342.173 150.276 336.096 L 150.276 330.018 144.260 330.018 C 140.952 330.018,138.134 330.129,137.999 330.264 M299.325 330.264 C 299.190 330.399,299.079 333.134,299.079 336.341 L 299.079 342.173 292.818 342.173 L 286.556 342.173 286.556 348.433 L 286.556 354.693 242.910 354.789 L 199.263 354.885 243.002 354.883 L 286.740 354.880 286.841 348.711 L 286.942 342.541 293.002 342.541 L 299.061 342.541 299.162 348.711 L 299.263 354.880 305.157 354.894 L 311.050 354.908 305.249 354.793 L 299.448 354.678 299.448 348.615 L 299.448 342.551 311.694 342.454 L 323.941 342.357 323.956 336.280 L 323.970 330.203 323.854 336.188 L 323.739 342.173 317.670 342.173 L 311.602 342.173 311.602 336.096 L 311.602 330.018 305.586 330.018 C 302.277 330.018,299.460 330.129,299.325 330.264 M149.908 336.280 L 149.908 342.173 144.015 342.173 L 138.122 342.173 138.122 336.280 L 138.122 330.387 144.015 330.387 L 149.908 330.387 149.908 336.280 M311.234 336.280 L 311.234 342.173 305.341 342.173 L 299.448 342.173 299.448 336.280 L 299.448 330.387 305.341 330.387 L 311.234 330.387 311.234 336.280 M366.750 342.444 L 373.095 342.559 373.196 348.720 L 373.297 354.880 379.650 354.894 L 386.004 354.907 379.751 354.793 L 373.498 354.679 373.397 348.518 L 373.297 342.357 366.851 342.343 L 360.405 342.330 366.750 342.444 M44.083 354.972 C 47.564 355.032,53.366 355.032,56.974 354.972 C 60.583 354.912,57.735 354.862,50.645 354.862 C 43.554 354.862,40.602 354.911,44.083 354.972 " stroke="none" fill="#8c543c" fill-rule="evenodd"></path><path id="path3" d="M0.000 184.162 L 0.000 368.324 200.000 368.324 L 400.000 368.324 400.000 184.162 L 400.000 0.000 200.000 0.000 L 0.000 0.000 0.000 184.162 M296.054 17.219 L 296.160 20.626 298.909 20.626 L 301.657 20.626 301.657 23.573 L 301.657 26.519 304.236 26.519 L 306.814 26.519 306.814 29.466 L 306.814 32.413 317.495 32.413 L 328.177 32.413 328.177 44.936 L 328.177 57.459 325.599 57.459 L 323.020 57.459 323.020 60.734 C 323.020 64.498,323.057 64.457,319.675 64.457 L 317.495 64.457 317.495 67.403 L 317.495 70.350 314.933 70.350 L 312.370 70.350 312.262 73.204 L 312.155 76.059 301.565 76.157 L 290.976 76.254 290.976 79.011 L 290.976 81.768 293.554 81.768 L 296.133 81.768 296.133 85.067 L 296.133 88.366 298.803 88.474 L 301.473 88.582 301.473 106.998 L 301.473 125.414 298.818 125.522 L 296.162 125.630 296.055 128.653 L 295.948 131.676 293.462 131.785 L 290.976 131.894 290.976 134.807 L 290.976 137.720 293.462 137.828 L 295.948 137.937 296.055 140.976 L 296.162 144.015 298.916 144.015 L 301.670 144.015 301.572 153.499 L 301.473 162.983 298.803 163.092 L 296.133 163.200 296.133 165.578 L 296.133 167.956 297.790 167.956 L 299.448 167.956 299.448 174.208 L 299.448 180.461 305.433 180.562 L 311.418 180.663 311.519 186.648 L 311.620 192.634 317.873 192.634 L 324.125 192.634 324.125 217.864 L 324.125 243.094 317.864 243.094 L 311.602 243.094 311.602 249.346 L 311.602 255.599 305.617 255.700 L 299.632 255.801 299.530 261.602 L 299.429 267.403 305.516 267.403 L 311.602 267.403 311.602 273.665 L 311.602 279.926 317.864 279.926 L 324.125 279.926 324.125 298.895 L 324.125 317.864 317.864 317.864 L 311.602 317.864 311.602 323.941 L 311.602 330.018 317.864 330.018 L 324.125 330.018 324.125 336.280 L 324.125 342.541 317.864 342.541 L 311.602 342.541 311.602 348.803 L 311.602 355.064 305.341 355.064 L 299.079 355.064 299.079 348.803 L 299.079 342.541 293.002 342.541 L 286.924 342.541 286.924 348.803 L 286.924 355.064 243.094 355.064 L 199.263 355.064 199.263 348.803 L 199.263 342.541 193.370 342.541 L 187.477 342.541 187.477 348.803 L 187.477 355.064 181.031 355.064 L 174.586 355.064 174.586 261.510 L 174.586 167.956 176.243 167.956 L 177.901 167.956 177.901 165.577 L 177.901 163.197 174.862 163.090 L 171.823 162.983 171.823 153.591 L 171.823 144.199 174.847 144.092 L 177.871 143.985 177.978 140.961 L 178.085 137.937 183.333 137.835 L 188.582 137.733 188.582 134.428 L 188.582 131.123 191.154 131.123 L 193.725 131.123 193.824 122.192 L 193.923 113.260 196.593 113.151 L 199.263 113.043 199.263 109.744 L 199.263 106.446 201.842 106.446 L 204.420 106.446 204.420 103.499 L 204.420 100.552 207.182 100.552 L 209.945 100.552 209.945 97.606 L 209.945 94.659 212.508 94.659 L 215.071 94.659 215.178 91.621 L 215.285 88.582 220.520 88.480 L 225.754 88.378 225.861 85.165 L 225.967 81.952 231.215 81.850 L 236.464 81.748 236.464 76.065 L 236.464 70.382 233.794 70.274 L 231.123 70.166 231.021 55.433 C 230.897 37.539,230.633 39.042,233.893 39.042 L 236.464 39.042 236.464 35.727 L 236.464 32.413 239.027 32.413 L 241.590 32.413 241.697 29.558 L 241.805 26.703 244.475 26.595 L 247.145 26.487 247.145 23.557 L 247.145 20.626 249.724 20.626 L 252.302 20.626 252.302 17.342 C 252.302 15.060,252.443 14.001,252.762 13.870 C 253.016 13.767,262.836 13.712,274.586 13.748 L 295.948 13.812 296.054 17.219 M258.932 23.941 L 258.932 26.888 256.001 26.888 L 253.070 26.888 252.962 29.742 L 252.855 32.597 250.198 32.705 L 247.541 32.813 247.435 36.204 L 247.330 39.595 244.859 39.703 L 242.388 39.812 242.280 42.650 L 242.173 45.488 239.503 45.596 L 236.832 45.704 236.832 54.696 L 236.832 63.688 239.503 63.796 L 242.173 63.904 242.280 66.943 L 242.387 69.982 244.950 69.982 L 247.514 69.982 247.514 72.912 L 247.514 75.842 250.184 75.951 L 252.855 76.059 252.961 79.098 L 253.068 82.136 255.807 82.136 L 258.545 82.136 258.646 76.151 L 258.748 70.166 261.418 70.058 L 264.088 69.949 264.088 67.019 L 264.088 64.088 266.667 64.088 L 269.245 64.088 269.245 45.494 L 269.245 26.899 279.834 26.801 L 290.424 26.703 290.531 23.849 L 290.639 20.994 274.785 20.994 L 258.932 20.994 258.932 23.941 M290.684 29.742 L 290.792 32.597 293.278 32.706 L 295.764 32.815 295.764 29.851 L 295.764 26.888 293.171 26.888 L 290.577 26.888 290.684 29.742 M296.133 36.096 L 296.133 39.444 298.619 39.335 L 301.105 39.227 301.105 36.096 L 301.105 32.965 298.619 32.856 L 296.133 32.747 296.133 36.096 M285.451 42.357 L 285.451 45.304 288.029 45.304 L 290.608 45.304 290.608 42.357 L 290.608 39.411 288.029 39.411 L 285.451 39.411 285.451 42.357 M301.289 42.541 L 301.289 45.304 306.630 45.304 L 311.971 45.304 311.971 51.197 L 311.971 57.090 314.549 57.090 L 317.127 57.090 317.127 54.144 L 317.127 51.197 319.705 51.197 L 322.284 51.197 322.284 45.488 L 322.284 39.779 311.786 39.779 L 301.289 39.779 301.289 42.541 M274.770 60.773 L 274.770 64.088 277.348 64.088 L 279.926 64.088 279.926 76.427 L 279.926 88.766 282.505 88.766 L 285.083 88.766 285.083 79.374 L 285.083 69.982 295.764 69.982 L 306.446 69.982 306.446 67.035 L 306.446 64.088 293.186 64.088 L 279.926 64.088 279.926 60.773 L 279.926 57.459 277.348 57.459 L 274.770 57.459 274.770 60.773 M306.814 60.589 L 306.814 63.720 309.208 63.720 L 311.602 63.720 311.602 60.589 L 311.602 57.459 309.208 57.459 L 306.814 57.459 306.814 60.589 M242.357 85.441 L 242.357 88.766 247.528 88.766 L 252.699 88.766 252.593 85.543 L 252.486 82.320 247.422 82.218 L 242.357 82.115 242.357 85.441 M231.676 91.897 L 231.676 94.659 236.832 94.659 L 241.989 94.659 241.989 91.897 L 241.989 89.134 236.832 89.134 L 231.676 89.134 231.676 91.897 M285.451 91.897 L 285.451 94.659 288.029 94.659 L 290.608 94.659 290.608 91.897 L 290.608 89.134 288.029 89.134 L 285.451 89.134 285.451 91.897 M220.994 97.985 L 220.994 100.942 226.059 100.839 L 231.123 100.737 231.231 97.882 L 231.339 95.028 226.167 95.028 L 220.994 95.028 220.994 97.985 M290.608 107.182 L 290.608 119.337 293.186 119.337 L 295.764 119.337 295.764 107.182 L 295.764 95.028 293.186 95.028 L 290.608 95.028 290.608 107.182 M215.470 103.867 L 215.470 106.814 218.048 106.814 L 220.626 106.814 220.626 103.867 L 220.626 100.921 218.048 100.921 L 215.470 100.921 215.470 103.867 M210.313 110.129 L 210.313 113.477 212.799 113.369 L 215.285 113.260 215.285 110.129 L 215.285 106.998 212.799 106.889 L 210.313 106.780 210.313 110.129 M241.989 116.374 L 241.989 119.337 244.567 119.337 L 247.145 119.337 247.145 131.659 L 247.145 143.981 244.659 144.090 L 242.173 144.199 242.173 147.145 L 242.173 150.092 247.229 150.194 L 252.284 150.297 252.385 144.117 L 252.486 137.937 258.195 137.937 L 263.904 137.937 264.003 146.869 L 264.101 155.801 266.673 155.801 L 269.245 155.801 269.245 140.700 L 269.245 125.599 266.682 125.599 L 264.119 125.599 264.012 128.453 L 263.904 131.308 258.287 131.409 L 252.670 131.511 252.670 125.424 L 252.670 119.337 250.108 119.337 L 247.545 119.337 247.437 116.483 L 247.330 113.628 244.659 113.520 L 241.989 113.412 241.989 116.374 M204.788 116.575 L 204.788 119.337 207.366 119.337 L 209.945 119.337 209.945 116.575 L 209.945 113.812 207.366 113.812 L 204.788 113.812 204.788 116.575 M285.451 122.267 L 285.451 125.230 288.045 125.230 L 290.639 125.230 290.531 122.376 L 290.424 119.521 287.937 119.412 L 285.451 119.303 285.451 122.267 M199.632 128.913 L 199.632 138.122 202.210 138.122 L 204.788 138.122 204.788 144.015 L 204.788 149.908 207.366 149.908 L 209.945 149.908 209.945 144.015 L 209.945 138.122 207.366 138.122 L 204.788 138.122 204.788 128.913 L 204.788 119.705 202.210 119.705 L 199.632 119.705 199.632 128.913 M279.926 134.807 L 279.926 144.015 282.505 144.015 L 285.083 144.015 285.083 134.807 L 285.083 125.599 282.505 125.599 L 279.926 125.599 279.926 134.807 M194.107 141.252 L 194.107 144.015 196.685 144.015 L 199.263 144.015 199.263 141.252 L 199.263 138.490 196.685 138.490 L 194.107 138.490 194.107 141.252 M183.425 147.145 L 183.425 149.908 188.582 149.908 L 193.738 149.908 193.738 147.145 L 193.738 144.383 188.582 144.383 L 183.425 144.383 183.425 147.145 M285.451 147.346 L 285.451 150.310 287.937 150.201 L 290.424 150.092 290.531 147.238 L 290.639 144.383 288.045 144.383 L 285.451 144.383 285.451 147.346 M178.269 153.039 L 178.269 155.801 180.847 155.801 L 183.425 155.801 183.425 153.039 L 183.425 150.276 180.847 150.276 L 178.269 150.276 178.269 153.039 M209.945 153.023 L 209.945 155.769 212.615 155.877 L 215.285 155.985 215.392 159.208 L 215.498 162.431 233.900 162.431 L 252.302 162.431 252.302 159.304 L 252.302 156.177 236.556 156.081 L 220.810 155.985 220.703 153.131 L 220.595 150.276 215.270 150.276 L 209.945 150.276 209.945 153.023 M252.670 153.039 L 252.670 155.801 255.617 155.801 L 258.564 155.801 258.564 153.039 L 258.564 150.276 255.617 150.276 L 252.670 150.276 252.670 153.039 M290.608 153.039 L 290.608 155.801 293.186 155.801 L 295.764 155.801 295.764 153.039 L 295.764 150.276 293.186 150.276 L 290.608 150.276 290.608 153.039 M183.425 159.296 L 183.425 162.431 196.700 162.431 L 209.975 162.431 209.868 159.392 L 209.761 156.354 196.593 156.257 L 183.425 156.160 183.425 159.296 M269.613 159.300 L 269.613 162.431 280.110 162.431 L 290.608 162.431 290.608 159.300 L 290.608 156.169 280.110 156.169 L 269.613 156.169 269.613 159.300 M63.637 174.309 L 63.738 180.479 69.438 180.479 L 75.138 180.479 75.138 174.217 L 75.138 167.956 106.630 167.956 L 138.122 167.956 138.122 174.208 L 138.122 180.461 144.107 180.562 L 150.092 180.663 150.193 186.648 L 150.294 192.634 156.547 192.634 L 162.799 192.634 162.799 217.864 L 162.799 243.094 156.538 243.094 L 150.276 243.094 150.276 249.346 L 150.276 255.599 144.291 255.700 L 138.306 255.801 138.204 261.602 L 138.103 267.403 144.190 267.403 L 150.276 267.403 150.276 273.665 L 150.276 279.926 156.538 279.926 L 162.799 279.926 162.799 298.895 L 162.799 317.864 156.538 317.864 L 150.276 317.864 150.276 323.941 L 150.276 330.018 156.538 330.018 L 162.799 330.018 162.799 336.280 L 162.799 342.541 156.538 342.541 L 150.276 342.541 150.276 348.803 L 150.276 355.064 144.015 355.064 L 137.753 355.064 137.753 348.803 L 137.753 342.541 131.676 342.541 L 125.599 342.541 125.599 348.803 L 125.599 355.064 118.969 355.064 L 112.339 355.064 112.339 317.680 L 112.339 280.295 88.031 280.295 L 63.724 280.295 63.630 317.587 L 63.536 354.880 50.737 354.977 L 37.937 355.074 37.937 348.808 L 37.937 342.541 32.044 342.541 L 26.151 342.541 26.151 348.803 L 26.151 355.064 19.705 355.064 L 13.260 355.064 13.260 261.508 L 13.260 167.951 38.398 168.045 L 63.536 168.140 63.637 174.309 M373.481 180.286 L 373.481 192.616 379.834 192.717 L 386.188 192.818 386.188 273.849 L 386.188 354.880 379.650 354.981 L 373.112 355.081 373.112 348.811 L 373.112 342.541 367.035 342.541 L 360.958 342.541 360.958 348.803 L 360.958 355.064 354.696 355.064 L 348.435 355.064 348.435 342.726 L 348.435 330.387 342.173 330.387 L 335.912 330.387 335.912 249.171 L 335.912 167.956 354.696 167.956 L 373.481 167.956 373.481 180.286 M225.046 174.770 L 225.046 180.479 230.755 180.479 L 236.464 180.479 236.464 174.770 L 236.464 169.061 230.755 169.061 L 225.046 169.061 225.046 174.770 M63.720 230.571 L 63.720 242.726 88.029 242.726 L 112.339 242.726 112.339 230.571 L 112.339 218.416 88.029 218.416 L 63.720 218.416 63.720 230.571 M225.046 230.571 L 225.046 242.726 249.355 242.726 L 273.665 242.726 273.665 230.571 L 273.665 218.416 249.355 218.416 L 225.046 218.416 225.046 230.571 M225.046 292.449 L 225.046 304.604 249.355 304.604 L 273.665 304.604 273.665 292.449 L 273.665 280.295 249.355 280.295 L 225.046 280.295 225.046 292.449 M138.122 336.280 L 138.122 342.173 144.015 342.173 L 149.908 342.173 149.908 336.280 L 149.908 330.387 144.015 330.387 L 138.122 330.387 138.122 336.280 M299.448 336.280 L 299.448 342.173 305.341 342.173 L 311.234 342.173 311.234 336.280 L 311.234 330.387 305.341 330.387 L 299.448 330.387 299.448 336.280 " stroke="none" fill="#040404" fill-rule="evenodd"></path><path id="path4" d="" stroke="none" fill="#401c84" fill-rule="evenodd"></path></g></svg>